<svg width="116" height="65" viewBox="0 0 116 65" fill="none" xmlns="http://www.w3.org/2000/svg">
<g id="Group">
<path id="Vector" d="M0 35.8229C0 35.8229 32.5306 106.087 115.139 27.7417C115.24 27.6467 100.602 17.1681 99.701 16.6065C88.3443 9.53245 75.8723 3.78529 62.6932 1.23622C45.4336 -2.10205 27.0788 1.12389 13.8442 13.322C7.44532 19.2189 2.84014 27.6371 0 35.8229Z" fill="#0200CD"/>
<g id="Group_2">
<g id="Group_3">
<path id="Vector_2" d="M38.4274 25.6823H38.2554C37.2071 25.6823 36.3203 25.9386 35.6207 26.4436C35.1573 26.7787 34.7645 27.2232 34.4501 27.7705V20.0945H30.165V39.9878H34.4501V32.0084C34.4501 31.2681 34.6613 30.67 35.0779 30.2283C35.4984 29.7838 36.0393 29.5678 36.7321 29.5678C37.425 29.5678 37.9104 29.7723 38.3137 30.1928C38.7132 30.6095 38.9158 31.1712 38.9158 31.8605V39.9887H43.2008V32.1073C43.2008 30.0363 42.7927 28.4349 41.9862 27.3471C41.1682 26.243 39.9708 25.6832 38.4284 25.6832L38.4274 25.6823Z" fill="white"/>
<path id="Vector_3" d="M64.6687 35.6683L61.9929 26.1018H57.5664L61.6651 39.861L61.7033 39.9877H67.5499L71.1316 26.1018H66.9794L64.6687 35.6683Z" fill="white"/>
<path id="Vector_4" d="M77.0556 26.1018H72.7705V39.9877H77.0556V26.1018Z" fill="white"/>
<path id="Vector_5" d="M86.9914 26.1018H86.8194C85.7596 26.1018 84.8431 26.3361 84.0968 26.7988C83.3686 27.251 82.8143 27.9289 82.4483 28.8141V26.1018H78.9746V39.9877H83.2597V32.1706C83.2597 31.4774 83.4642 30.935 83.8837 30.5106C84.3032 30.0872 84.846 29.8808 85.5408 29.8808C86.2355 29.8808 86.7382 30.0824 87.1338 30.4972C87.5313 30.9138 87.7244 31.438 87.7244 32.0986V39.9877H92.0094V32.3146C92.0094 30.2542 91.5784 28.6893 90.727 27.6629C89.8688 26.627 88.6112 26.1028 86.9914 26.1028V26.1018Z" fill="white"/>
<path id="Vector_6" d="M21.2294 24.7855C22.9572 24.7855 24.4843 25.6304 25.4371 26.9285L28.7617 23.5883C26.9489 21.4521 24.2473 20.0945 21.2285 20.0945C15.7623 20.0945 11.3291 24.5484 11.3291 30.0402C11.3291 35.532 15.7623 39.9859 21.2285 39.9859C24.1909 39.9859 26.8466 38.682 28.6556 36.613L25.3406 33.2824C24.383 34.5066 22.8989 35.2967 21.2285 35.2967C18.3396 35.2967 15.9974 32.9435 15.9974 30.0411C15.9974 27.1387 18.3396 24.7855 21.2285 24.7855H21.2294Z" fill="white"/>
<path id="Vector_7" d="M56.4547 28.4704C55.9454 27.6764 55.1943 27.0754 54.2214 26.6836C53.2629 26.2977 52.0703 26.1018 50.6779 26.1018C50.2011 26.1018 49.6917 26.1104 49.1489 26.1258C48.6052 26.1421 48.0738 26.1661 47.5702 26.1969C47.0609 26.2285 46.6175 26.2602 46.24 26.2919L46.0785 26.3053V29.8568L46.2658 29.8452C46.7732 29.8136 47.3371 29.7819 47.9601 29.7502C48.5813 29.7195 49.1862 29.6955 49.7739 29.6791C50.3626 29.6638 50.8356 29.6561 51.1949 29.6561C51.8639 29.6561 52.3512 29.8059 52.6427 30.1016C52.9141 30.3762 53.0613 30.7929 53.0804 31.3401H50.8261C49.6172 31.3401 48.5325 31.4899 47.6018 31.7866C46.6557 32.088 45.9093 32.5614 45.3818 33.1922C44.8486 33.8306 44.5791 34.6534 44.5791 35.6404C44.5791 36.541 44.796 37.3273 45.2222 37.9773C45.6475 38.6263 46.2476 39.1304 47.0055 39.4741C47.7537 39.8149 48.6338 39.9877 49.622 39.9877C50.6101 39.9877 51.4042 39.814 52.0741 39.4712C52.7488 39.1256 53.2849 38.6244 53.6691 37.9831C53.6958 37.9389 53.7216 37.8928 53.7474 37.8458V39.9877H57.2211V31.5168C57.2211 30.2869 56.9631 29.2625 56.4557 28.4704H56.4547ZM53.1473 34.4825C53.11 35.1738 52.9801 35.7153 52.7574 36.107C52.5347 36.4987 52.2509 36.7752 51.9069 36.9337C51.5629 37.093 51.1682 37.1718 50.7219 37.1718C50.0338 37.1718 49.5044 36.999 49.1327 36.6533C48.7609 36.3077 48.5746 35.8555 48.5746 35.2948C48.5746 34.7341 48.76 34.254 49.1327 33.9084C49.5044 33.5628 50.0338 33.3899 50.7219 33.3899H53.1473V34.4825Z" fill="white"/>
</g>
<path id="Vector_8" d="M72.8153 23.865C72.8153 23.865 76.1074 26.8701 78.7574 20.8512C78.7603 20.8435 77.7492 20.615 77.689 20.6054C76.9283 20.4844 76.1371 20.4585 75.3792 20.6189C74.3873 20.8291 73.4833 21.4119 73.0513 22.3576C72.842 22.8146 72.7847 23.3657 72.8153 23.865Z" fill="#BAFF29"/>
</g>
</g>
</svg>
